<svg class="logo_desktop" xmlns="http://www.w3.org/2000/svg" viewBox="0 0 173.56 129.15"><defs><style>.cls-1-logo_desktop{fill:#409;}.cls-2-logo_desktop{fill:#ef426f;}</style></defs><path class="cls-1-logo_desktop" d="M84.38.79s0,11.34,0,16.46a32.18,32.18,0,0,1-.12,3.26,8.48,8.48,0,0,1-1,3.09,8.87,8.87,0,0,1-3.51,3.62A11.24,11.24,0,0,1,76,28.71c-.25,0-.5.13-.76.19a19.65,19.65,0,0,1-5,.26,17.43,17.43,0,0,1-2.4-.25,11.54,11.54,0,0,1-6.75-3.58,9.13,9.13,0,0,1-2.15-4.68,22.69,22.69,0,0,1-.21-3.59V.79H68.88s0,17,0,17.4a2.81,2.81,0,0,0,2.62,2.62,2.73,2.73,0,0,0,2.74-2.62V.79Zm62.31,41.38a6.23,6.23,0,0,0,0-1.2,7.26,7.26,0,0,0-2-4.44A9.52,9.52,0,0,0,140.52,34a16.87,16.87,0,0,0-6.12-.81,15.7,15.7,0,0,0-5.75,1,9.61,9.61,0,0,0-3,1.85,7.78,7.78,0,0,0-1.51,2,6.39,6.39,0,0,0-.92,3q0,.91,0,1.83a6.94,6.94,0,0,0,2.25,4.92,9.59,9.59,0,0,0,3.32,2c2,.75,4.06,1.45,6.08,2.2a7.18,7.18,0,0,1,1.56.8,1.19,1.19,0,0,1-.27,2A2.23,2.23,0,0,1,133,53.07c0-.24,0-.76,0-.76H122.83s0,.46,0,.63a15.86,15.86,0,0,0,.29,2.07A8.61,8.61,0,0,0,126.44,60a11.46,11.46,0,0,0,4,1.85,23.25,23.25,0,0,0,9.7-.14,11,11,0,0,0,3.13-1.46,8.81,8.81,0,0,0,2.07-2,7.88,7.88,0,0,0,1.58-3.95,10.58,10.58,0,0,0-.12-3.64,7.33,7.33,0,0,0-3.52-4.75,20.7,20.7,0,0,0-3.75-1.69c-1.56-.6-3.14-1.17-4.7-1.77a5.1,5.1,0,0,1-1.13-.65,1,1,0,0,1,.15-1.75,2,2,0,0,1,2.33.38,1.8,1.8,0,0,1,.44,1.06c0,.21,0,.7,0,.7ZM0,9.36H6.63V28.19H16.7V9.36h6.46V.91H0ZM88.47,28.19H107V19.47H98.63V.91H88.47ZM39.9,20.27A5.4,5.4,0,0,0,45,14.63,5.4,5.4,0,0,0,39.9,9a5.39,5.39,0,0,0-5.09,5.65,5.39,5.39,0,0,0,5.09,5.64M39.81,0c8.58,0,15.53,6.54,15.53,14.6s-7,14.61-15.53,14.61S24.27,22.67,24.27,14.6,31.23,0,39.81,0M159.24.79v17.4a2.73,2.73,0,0,1-2.74,2.62,2.81,2.81,0,0,1-2.62-2.62c0-.37,0-17.4,0-17.4H143.73V17.06a22.69,22.69,0,0,0,.21,3.59,9.13,9.13,0,0,0,2.15,4.68,11.57,11.57,0,0,0,6.75,3.58,17.59,17.59,0,0,0,2.4.25,19.65,19.65,0,0,0,5-.26c.26-.06.51-.15.76-.19a11.24,11.24,0,0,0,3.74-1.49,8.87,8.87,0,0,0,3.51-3.62,8.69,8.69,0,0,0,1-3.09c.1-1.08.11-2.17.11-3.26,0-5.12,0-16.46,0-16.46ZM124.63,20.27a5.39,5.39,0,0,0,5.1-5.64,5.12,5.12,0,1,0-10.19,0,5.39,5.39,0,0,0,5.09,5.64M124.54,0c8.58,0,15.53,6.54,15.53,14.6s-6.95,14.61-15.53,14.61S109,22.67,109,14.6,116,0,124.54,0m26.31,61.36h18.54V54.11H161v-3h7.5V44.33H161v-3h8.35V34.08H150.85Z"/><path class="cls-2-logo_desktop" d="M150.85,67.35h18.54v7.24H161v3h7.5v6.78H161v3h8.35v7.24H150.85ZM107.92,34.08V51.47a2.72,2.72,0,0,1-2.74,2.62,2.79,2.79,0,0,1-2.61-2.62c0-.37,0-17.39,0-17.39H92.42V50.35a24,24,0,0,0,.2,3.59,9.23,9.23,0,0,0,2.16,4.68,11.51,11.51,0,0,0,6.74,3.58,17.57,17.57,0,0,0,2.41.24,19.65,19.65,0,0,0,5-.26c.25,0,.5-.14.76-.19a11.43,11.43,0,0,0,3.74-1.48,8.9,8.9,0,0,0,3.5-3.62,8.56,8.56,0,0,0,1-3.09,32.38,32.38,0,0,0,.11-3.27c0-5.11,0-16.45,0-16.45ZM77.55,50.61l-2-7.84-1.9,7.86ZM91,61.36H80.62l-1.17-3.72H71.72l-1.21,3.72H60.15l9.74-27.28H81.22Zm42.89,19.4c3.73,0,3.73-6.08,0-6.08h-2.48v6.09h2.48m8.95,4.86c-.52.45-.51.44-.22,1.07,1.09,2.4,3.64,7.94,3.64,7.94H134.74l-2.88-6.31h-1v6.31h-9.44V67.24h12s1.92.09,2.88.12a10.19,10.19,0,0,1,5.16,1.73,9.63,9.63,0,0,1,3.85,4.74,11.62,11.62,0,0,1,.67,5.26,10.3,10.3,0,0,1-1.33,4.2,8.57,8.57,0,0,1-1.88,2.33m23.52,31.16-.73.87a13.14,13.14,0,0,1-1.07,1.14,7.5,7.5,0,0,1-1.07.83,4.23,4.23,0,0,1-1.15.48,5.29,5.29,0,0,1-3.37-.22,4.54,4.54,0,0,1-1.5-1.13,5.55,5.55,0,0,1-1-1.75,8.83,8.83,0,0,1-.37-2.6,6.26,6.26,0,0,1,.37-2.17,5.55,5.55,0,0,1,1-1.74,4.5,4.5,0,0,1,1.49-1.12,4.34,4.34,0,0,1,1.9-.41,4.8,4.8,0,0,1,2.5.61,8,8,0,0,1,2,1.88l.76,1,7.19-5.57-.7-1a15.13,15.13,0,0,0-2.06-2.32,13.18,13.18,0,0,0-2.64-1.86,13.83,13.83,0,0,0-3.2-1.19,16.7,16.7,0,0,0-3.82-.41,15.13,15.13,0,0,0-5.8,1.1,14,14,0,0,0-4.61,3.07,14.45,14.45,0,0,0-4.15,10.28,15.89,15.89,0,0,0,1.13,6,14.37,14.37,0,0,0,3,4.53,13.67,13.67,0,0,0,4.54,3,14.56,14.56,0,0,0,5.56,1.07,16,16,0,0,0,4.08-.48,13.84,13.84,0,0,0,3.33-1.31,12.65,12.65,0,0,0,2.68-2,20.17,20.17,0,0,0,2.09-2.42l.75-1Zm-72.67-41h6.63V94.63h10.07V75.79h6.46V67.35H93.66ZM38.84,61.36H57.35V52.64H49V34.08H38.84Z"/></svg>